<svg width="57" height="57" viewBox="0 0 57 57" fill="none" xmlns="http://www.w3.org/2000/svg">
<g clip-path="url(#clip0_258_2647)">
<path d="M46.4592 0H10.0265C4.48903 0 0 4.48903 0 10.0265V46.4592C0 51.9967 4.48903 56.4857 10.0265 56.4857H46.4592C51.9967 56.4857 56.4857 51.9967 56.4857 46.4592V10.0265C56.4857 4.48903 51.9967 0 46.4592 0Z" fill="#232B37"/>
<path d="M17.0639 21.3488C18.459 19.9427 20.0491 18.6986 21.7975 17.4766C11.9844 19.0777 7.01165 29.038 12.7721 37.4965C11.8225 31.0772 12.1501 26.0087 17.0603 21.3451L17.0639 21.3488Z" fill="#E4A5BF"/>
<path d="M39.458 34.758C38.1366 36.1935 36.6238 37.4781 34.8975 38.6928C44.1142 37.2683 49.4477 26.5535 43.9228 18.6729C44.8798 24.8934 43.875 30.1533 39.4617 34.7617L39.458 34.758Z" fill="#94AAC7"/>
<path d="M31.9457 15.3712C37.2313 17.8116 39.3588 24.7499 36.3848 29.7632C34.9971 32.2403 32.4316 34.0697 29.4832 34.1801C26.4686 34.3274 23.0565 32.5974 22.5265 29.384C22.1695 35.4279 30.2856 37.802 34.8462 35.1666C44.085 30.1423 42.8262 16.2582 33.2965 12.3087C33.2965 12.3087 33.2929 12.3198 33.2892 12.3235C24.8601 8.87454 13.4827 13.1259 10.5859 21.9746C14.8336 15.0767 24.7239 12.121 31.9494 15.3712H31.9457Z" fill="#E3D4B3"/>
<path d="M24.5548 41.115C19.317 38.693 17.16 31.8394 20.0495 26.8261C21.393 24.3452 23.9033 22.4864 26.8258 22.2987C29.8404 22.1036 33.1642 23.6164 33.9666 26.8114C33.9593 20.9074 25.9682 18.6878 21.4776 21.4227C12.4155 26.5574 13.759 40.2574 23.2039 44.1775C23.2039 44.1775 23.2076 44.1664 23.2113 44.1627C31.6403 47.6117 43.0177 43.3603 45.9145 34.5116C41.6669 41.4095 31.7765 44.3652 24.5548 41.115Z" fill="#EDE6D6"/>
</g>
<defs>
<clipPath id="clip0_258_2647">
<rect width="56.4858" height="56.4858" fill="white"/>
</clipPath>
</defs>
</svg>
