<svg width="895" height="202" viewBox="0 0 895 202" fill="none" xmlns="http://www.w3.org/2000/svg">
<path d="M162.967 0H35.1938C15.7568 0 0 15.9932 0 35.7217V165.412C0 185.14 15.7568 201.133 35.1938 201.133H162.967C182.404 201.133 198.161 185.14 198.161 165.412V35.7217C198.161 15.9932 182.404 0 162.967 0Z" fill="#232B37"/>
<path d="M59.8737 76.0056C64.7695 70.9956 70.3476 66.5558 76.4874 62.2383C42.056 67.9407 24.5996 103.418 44.825 133.519C41.4942 110.668 42.658 92.6242 59.8737 76.0056Z" fill="#E4A5BF"/>
<path d="M138.448 123.783C133.833 128.916 128.496 133.478 122.436 137.795C154.781 132.744 173.481 94.5788 154.099 66.5146C157.469 88.6727 153.938 107.409 138.448 123.783Z" fill="#94AAC7"/>
<path d="M112.083 54.7436C130.623 63.4195 138.087 88.1437 127.653 105.984C122.797 114.823 113.808 121.299 103.455 121.707C92.9006 122.236 80.9018 116.086 79.0558 104.64C77.8118 126.146 106.264 134.619 122.276 125.21C154.7 107.328 150.286 57.88 116.818 43.8275C116.818 43.8275 116.818 43.8275 116.818 43.8683C87.2423 31.5673 47.3131 46.7195 37.1603 78.2459C52.0484 53.6846 86.7607 43.1758 112.123 54.7436H112.083Z" fill="#E3D4B3"/>
<path d="M86.1588 146.39C67.7794 137.755 60.235 113.356 70.3477 95.516C75.0429 86.6772 83.8714 80.0379 94.1045 79.3862C104.659 78.6938 116.336 84.0704 119.146 95.4753C119.146 74.4577 91.0948 66.5557 75.3238 76.2906C43.541 94.5792 48.2362 143.376 81.3834 157.306C81.3834 157.306 81.3834 157.306 81.3834 157.265C110.959 169.566 150.888 154.414 161.041 122.888C146.153 147.449 111.441 157.958 86.1187 146.39H86.1588Z" fill="#EDE6D6"/>
<path d="M254.343 40.2842H331.111V59.9576H277.578V91.0767H325.734V110.75H277.578V161.176H254.343V40.2842Z" fill="white"/>
<path d="M348.808 108.469H397.285C396.964 102.563 395.198 97.6751 392.068 93.8463C388.938 90.0175 384.444 88.1031 378.585 88.1031C371.401 88.1031 366.225 90.3026 363.014 94.7831C359.804 99.2229 358.199 106.677 358.199 117.186C358.199 127.694 359.764 134.863 362.894 139.059C366.024 143.295 371.642 145.372 379.748 145.372C385.487 145.372 389.5 144.557 391.787 142.969C394.075 141.38 395.479 139.018 395.921 135.963H419.156C418.594 141.217 416.828 145.861 413.859 149.893C410.889 153.926 406.595 157.103 400.977 159.384C395.359 161.665 388.296 162.805 379.748 162.805C365.502 162.805 354.587 158.895 347.083 151.115C339.579 143.335 335.806 132.012 335.806 117.186C335.806 102.359 339.579 90.7914 347.083 82.7265C354.587 74.7024 365.101 70.6699 378.585 70.6699C387.333 70.6699 394.757 72.5029 400.897 76.128C406.997 79.7938 411.692 85.0482 414.942 91.9319C418.193 98.8156 419.838 107.247 419.838 117.145V123.988H348.608L348.768 108.428L348.808 108.469Z" fill="white"/>
<path d="M469.198 162.805C458.322 162.805 449.414 158.976 442.511 151.278C435.609 143.579 432.158 132.174 432.158 117.022C432.158 106.065 433.843 97.2266 437.214 90.4652C440.585 83.7037 445.08 78.6937 450.778 75.5166C456.436 72.3395 462.576 70.751 469.198 70.751C477.946 70.751 484.969 72.7876 490.266 76.9015C495.523 81.0154 499.375 86.5142 501.703 93.4793C504.07 100.444 505.234 108.306 505.234 117.063C505.234 125.82 504.07 133.519 501.703 140.402C499.335 147.286 495.523 152.785 490.266 156.817C484.969 160.85 477.986 162.886 469.198 162.886V162.805ZM476.1 145.046C483.042 145.046 488.259 142.724 491.67 138.04C495.081 133.356 496.807 126.309 496.807 116.859C496.807 107.41 495.081 100.322 491.67 95.5974C488.259 90.8725 483.042 88.51 476.1 88.51C469.158 88.51 463.539 90.8725 460.008 95.5974C456.477 100.322 454.711 107.41 454.711 116.859C454.711 126.309 456.477 133.396 460.008 138.04C463.539 142.724 468.917 145.046 476.1 145.046ZM496.807 38.2471H519.36V161.135H496.807V38.2471Z" fill="white"/>
<path d="M541.592 38.2471H565.148V61.8308H541.592V38.2471ZM564.667 72.421V161.135H542.114V72.421H564.667Z" fill="white"/>
<path d="M577.107 72.4209H599.178L616.514 132.745H617.036L632.366 72.4209H650.906L666.396 132.419H666.917L684.093 72.4209H705.964L678.354 161.135H658.33L641.836 100.811H641.314L625.142 161.135H604.917L577.147 72.4209H577.107Z" fill="white"/>
<path d="M798.021 161.094H784.899C779.722 161.094 775.709 159.342 772.86 155.799C770.011 152.255 768.446 147.897 768.245 142.642H773.141C771.014 148.915 767.563 153.843 762.787 157.428C758.012 161.012 751.912 162.804 744.528 162.804C738.348 162.804 732.81 161.786 727.955 159.831C723.099 157.876 719.246 154.821 716.437 150.789C713.628 146.756 712.224 141.583 712.224 135.311C712.224 129.608 713.307 124.924 715.514 121.217C717.681 117.511 720.571 114.619 724.182 112.582C727.794 110.546 731.687 109.079 735.981 108.224C740.234 107.369 744.448 106.961 748.622 106.961H768.325V101.992C768.325 97.2263 767.161 93.6419 764.874 91.3202C762.587 88.9985 758.895 87.8173 753.838 87.8173C748.461 87.8173 744.649 88.7949 742.401 90.7092C740.154 92.6644 738.75 95.5971 738.188 99.5888H715.635C715.956 93.4383 717.922 88.1839 721.534 83.8663C725.105 79.5487 729.801 76.2495 735.499 74.05C741.197 71.8504 747.498 70.71 754.36 70.71C758.052 70.71 761.985 71.158 766.158 72.0948C770.292 72.9909 774.224 74.6609 777.876 77.0641C781.528 79.4673 784.538 82.7666 786.905 86.9619C789.273 91.198 790.437 96.6561 790.437 103.377V143.212H798.182V161.175L798.021 161.094ZM734.054 134.292C734.054 138.162 735.138 141.054 737.265 142.927C739.392 144.801 742.803 145.738 747.538 145.738C754.159 145.738 759.256 144.109 762.868 140.85C766.479 137.591 768.245 133.192 768.245 127.612V122.48H748.702C743.525 122.48 739.793 123.498 737.506 125.453C735.218 127.409 734.054 130.382 734.054 134.251V134.292Z" fill="white"/>
<path d="M826.473 72.4209L845.174 130.871C845.856 133.03 846.498 134.985 847.1 136.696C847.702 138.406 848.424 139.75 849.187 140.728C849.989 141.706 850.912 142.194 852.036 142.194H864.837V160.157H848.505C844.452 160.157 841.081 159.546 838.392 158.283C835.703 157.021 833.376 154.821 831.409 151.685C829.443 148.549 827.517 144.068 825.591 138.284L804.041 72.5024H826.433L826.473 72.4209ZM873.465 72.4209H894.855L865.239 173.436C862.751 181.745 859.019 187.529 854.043 190.787C849.026 194.046 843.087 195.675 836.105 195.675H819.09V177.712H833.215C837.148 177.712 840.077 176.979 842.044 175.472C844.01 173.965 845.535 171.155 846.659 166.919L873.425 72.4209H873.465Z" fill="white"/>
</svg>
